<svg xmlns="http://www.w3.org/2000/svg" width="112.92" height="15.973" viewBox="0 0 112.92 15.973">
  <path id="dhl" d="M36.408,12.9c-.493.668-1.319,1.83-1.822,2.508-.255.345-.716.971.811.971h8.041s1.3-1.763,2.382-3.238c1.478-2.006.128-6.18-5.156-6.18H19.859l-3.608,4.9H35.914C36.906,11.867,36.893,12.245,36.408,12.9ZM30.5,17.591c-1.527,0-1.067-.628-.811-.973.5-.678,1.342-1.828,1.835-2.5s.5-1.036-.5-1.036H22.036L14.79,22.929H32.46a12.511,12.511,0,0,0,10.087-5.342ZM42,22.934H52.361l3.93-5.343H45.926ZM68.74,6.965l-3.976,5.4H60.138l3.974-5.4H53.749l-6.933,9.417H72.17L79.1,6.965ZM56.987,22.934H67.349l3.932-5.342H60.918ZM0,19.7v1.135H14.436L15.27,19.7Zm16.822-2.107H0v1.133H15.986ZM0,22.934H12.889l.83-1.128H0Zm97.708-2.1H112.92V19.7H98.543Zm-1.545,2.1H112.92V21.806H96.992Zm3.93-5.342-.833,1.135h13.66V17.591ZM86.52,16.382l6.932-9.417H82.477L75.54,16.382ZM74.651,17.591s-.758,1.035-1.126,1.534c-1.3,1.758-.15,3.809,4.1,3.809H94.264L98.2,17.592H74.651Z" transform="translate(0 -6.961)"/>
</svg>
