<svg xmlns="http://www.w3.org/2000/svg" width="79.068" height="18.261" viewBox="0 0 79.068 18.261">
  <path id="klarna" d="M547.539,5114.02h3.824v-17.943h-3.824Zm24.22-10.358v-1.593h-3.6v11.982h3.6v-6.278c0-1.816,2.04-2.612,3.475-2.231h.031v-3.473a4.2,4.2,0,0,0-3.506,1.593Zm-12.3,7.586a3.223,3.223,0,1,1,3.378-3.22,3.287,3.287,0,0,1-3.378,3.22Zm3.347-8.383a6.319,6.319,0,1,0-3.665,11.473,6.566,6.566,0,0,0,3.665-1.146v.829h3.123v-11.984H562.8Zm21.448-1.147a4.371,4.371,0,0,0-3.7,1.658v-1.34h-3.6v11.984h3.6v-6.565a2.524,2.524,0,0,1,2.709-2.709,2.354,2.354,0,0,1,2.486,2.678v6.564h3.6v-7.617c0-2.741-2.231-4.653-5.1-4.653Zm23.265,8.064a2.262,2.262,0,1,0,2.263,2.261,2.263,2.263,0,0,0-2.263-2.261Zm-10.294,1.466a3.223,3.223,0,1,1,3.378-3.22,3.288,3.288,0,0,1-3.378,3.22Zm3.378-8.383a6.319,6.319,0,1,0-3.665,11.473,6.567,6.567,0,0,0,3.665-1.146v.829h3.123v-11.984H600.6Zm5.386-.6h.159a.146.146,0,0,1,.159.126c0,.1-.031.128-.159.128h-.159Zm0,.415h.159l.159.351h.16l-.16-.351a.253.253,0,0,0,.16-.255.294.294,0,0,0-.319-.288h-.319v.893h.16Zm-75.275,11.345H534.7v-17.943h-3.983Zm14.213-17.943H541.07a10.615,10.615,0,0,1-5.8,9.272l5.961,8.669h4.844l-5.419-7.872a14.4,14.4,0,0,0,4.271-10.071Zm61.19,5.8a.7.7,0,1,1-.7.7A.708.708,0,0,1,606.117,5101.882Zm0,1.562a.856.856,0,1,0-.61-.251.862.862,0,0,0,.61.251Z" transform="translate(-530.714 -5096.077)"/>
</svg>
