<svg xmlns="http://www.w3.org/2000/svg" width="92.382" height="23.705" viewBox="0 0 92.382 23.705">
  <g id="paypal" transform="translate(-543.903 -4678.159)">
    <path id="Pfad_98684" data-name="Pfad 98684" d="M0,0A6.63,6.63,0,0,1-1,.514,3.561,3.561,0,0,1-2.325.8,2.949,2.949,0,0,1-3.772.522a.979.979,0,0,1-.5-.948A1.934,1.934,0,0,1-3.9-1.668,2.642,2.642,0,0,1-2.813-2.4a9.359,9.359,0,0,1,1.676-.376C-.557-2.85.59-2.982.736-2.983s.245-.082.179.309C.886-2.505.555-1.145.4-.527A1.208,1.208,0,0,1,0,0M4.5-9.553a9.693,9.693,0,0,0-4.543-.811,20.055,20.055,0,0,0-3.08.242c-.757.116-.835.135-1.305.237A1.488,1.488,0,0,0-5.544-8.706l-.311,1.277c-.176.817.29.783.5.72a13.067,13.067,0,0,1,1.512-.449,11.123,11.123,0,0,1,2.388-.321,6.293,6.293,0,0,1,2.306.326A1.17,1.17,0,0,1,1.618-6a.862.862,0,0,1-.042.36c-.042.1-.124.2-.367.23-1.453.086-2.5.219-3.751.4a11.733,11.733,0,0,0-3.23.887A5.031,5.031,0,0,0-7.959-2.391,4.7,4.7,0,0,0-8.689.264a3.121,3.121,0,0,0,1.038,2.41,3.9,3.9,0,0,0,2.683.92,7.184,7.184,0,0,0,1.6-.149,8.039,8.039,0,0,0,1.225-.42A6.341,6.341,0,0,0-1.1,2.445c.371-.247.628-.423.958-.639l.012.021-.093.409s-.006.006-.006.01v.007A.752.752,0,0,0,.454,3.2l.006.009H2.82A.051.051,0,0,0,2.861,3.2,1.324,1.324,0,0,0,3.95,2.246L5.807-5.771a4.608,4.608,0,0,0,.1-.657,4.965,4.965,0,0,0,.042-.612A2.68,2.68,0,0,0,4.5-9.553" transform="translate(614.59 4692.496)" fill="#b5b5b5"/>
    <path id="Pfad_98685" data-name="Pfad 98685" d="M0,0A2.177,2.177,0,0,0-1.6.974s-3.645,6.248-4,6.873c-.194.335-.391.122-.424,0-.027-.152-1.13-6.829-1.13-6.829a1.4,1.4,0,0,0-1.388-1h-2.272A.757.757,0,0,0-11.449.3a.757.757,0,0,0-.133.684s1.737,9.846,2.076,12.162c.169,1.281-.018,1.508-.018,1.508l-2.252,3.927c-.329.533-.149.969.4.969h2.634a2.133,2.133,0,0,0,1.592-.967L2.977,1.452S3.946-.012,3.052,0C2.443.009,0,0,0,0" transform="translate(587.136 4682.31)"/>
    <path id="Pfad_98686" data-name="Pfad 98686" d="M0,0A3.8,3.8,0,0,0-1.4-1.5a6.4,6.4,0,0,0-2.2-.81,18.1,18.1,0,0,0-3-.239h-5.31a1.328,1.328,0,0,0-1.219.97l-3.58,15.564a.759.759,0,0,0,.134.686.759.759,0,0,0,.637.286H-13.4a1.3,1.3,0,0,0,1.219-.972l.876-3.777a1.3,1.3,0,0,1,1.212-.965h.727a12.071,12.071,0,0,0,7.258-1.91A5.952,5.952,0,0,0,.485,2.293,4.739,4.739,0,0,0,0,0M-5.492,5.085A5.336,5.336,0,0,1-8.7,5.927h-.624a.761.761,0,0,1-.639-.285.761.761,0,0,1-.136-.686l.765-3.3A1.3,1.3,0,0,1-8.12.689h.832a4.024,4.024,0,0,1,2.21.5A1.664,1.664,0,0,1-4.345,2.7,2.741,2.741,0,0,1-5.492,5.085" transform="translate(560.643 4680.708)"/>
    <path id="Pfad_98687" data-name="Pfad 98687" d="M0,0A3.883,3.883,0,0,0-1.4-1.5a6.306,6.306,0,0,0-2.211-.812A17.806,17.806,0,0,0-6.6-2.547h-5.321a1.323,1.323,0,0,0-1.212.969l-3.578,15.569a.753.753,0,0,0,.131.682.753.753,0,0,0,.633.285l2.553,0a1.32,1.32,0,0,0,1.221-.962l.863-3.778a1.306,1.306,0,0,1,1.222-.966h.726q4.671,0,7.258-1.913A6,6,0,0,0,.485,2.289,4.928,4.928,0,0,0,0,0M-5.49,5.092a5.379,5.379,0,0,1-3.21.832h-.633a.752.752,0,0,1-.639-.281.752.752,0,0,1-.132-.686l.763-3.3A1.3,1.3,0,0,1-8.13.69h.836a4.126,4.126,0,0,1,2.211.492A1.7,1.7,0,0,1-4.344,2.7,2.8,2.8,0,0,1-5.49,5.1" transform="translate(606.82 4680.765)" fill="#b5b5b5"/>
    <path id="Pfad_98688" data-name="Pfad 98688" d="M0,0A6.762,6.762,0,0,1-1,.514,3.617,3.617,0,0,1-2.326.8,2.951,2.951,0,0,1-3.772.522a.982.982,0,0,1-.5-.948A1.934,1.934,0,0,1-3.9-1.668,2.639,2.639,0,0,1-2.815-2.4a9.472,9.472,0,0,1,1.678-.375C-.557-2.85.591-2.982.737-2.984s.243-.082.178.309C.887-2.505.555-1.145.4-.528A1.228,1.228,0,0,1,0,0M4.5-9.553a9.693,9.693,0,0,0-4.543-.811,19.94,19.94,0,0,0-3.08.242c-.758.115-.834.134-1.3.237A1.487,1.487,0,0,0-5.544-8.707l-.311,1.278c-.175.817.29.783.5.72a13.126,13.126,0,0,1,1.513-.45A11.3,11.3,0,0,1-1.459-7.48a6.3,6.3,0,0,1,2.307.326A1.17,1.17,0,0,1,1.617-6a.86.86,0,0,1-.04.36c-.043.1-.125.2-.369.23-1.451.088-2.493.22-3.751.4a11.715,11.715,0,0,0-3.229.887A5.016,5.016,0,0,0-7.958-2.391,4.676,4.676,0,0,0-8.689.264a3.121,3.121,0,0,0,1.038,2.41,3.9,3.9,0,0,0,2.682.92,7.262,7.262,0,0,0,1.6-.149,8.065,8.065,0,0,0,1.224-.42A6.375,6.375,0,0,0-1.1,2.445c.371-.247.629-.423.96-.639l.01.02-.092.409a.021.021,0,0,0-.006.011v.007A.751.751,0,0,0,.454,3.2l.006.01H2.82a.042.042,0,0,0,.04-.01,1.327,1.327,0,0,0,1.09-.954L5.808-5.772A4.6,4.6,0,0,0,5.9-6.428a5.086,5.086,0,0,0,.045-.612A2.681,2.681,0,0,0,4.5-9.553" transform="translate(568.402 4692.484)"/>
    <path id="Pfad_98689" data-name="Pfad 98689" d="M0,0H-2.28a1.312,1.312,0,0,0-1.2.907c-.005.02-.016.04-.02.061,0,0-.055.248-.149.676L-6.773,15.813c-.072.32-.12.529-.135.584l.006.007a.749.749,0,0,0,.111.638.749.749,0,0,0,.567.313l.007.009h2.362a1.316,1.316,0,0,0,1.2-.9c.007-.024.019-.047.024-.071L.774.967h0A.759.759,0,0,0,0,0" transform="translate(627.859 4678.346)" fill="#b5b5b5"/>
    <path id="Pfad_98690" data-name="Pfad 98690" d="M0,0A2.051,2.051,0,0,1-.255.051,1.8,1.8,0,0,1-.5.071a.766.766,0,0,1-.577-.2.918.918,0,0,1-.2-.654V-2.1h-.282v-.351h.282v-.711H-.86v.711H0V-2.1H-.86V-.975a2.722,2.722,0,0,0,.009.3A.5.5,0,0,0-.788-.47a.291.291,0,0,0,.134.13A.621.621,0,0,0-.393-.3.828.828,0,0,0-.18-.325a1.429,1.429,0,0,0,.159-.05H0Z" transform="translate(632.168 4681.487)" fill="#b5b5b5"/>
    <path id="Pfad_98691" data-name="Pfad 98691" d="M0,0H-.416V-1.41a3.07,3.07,0,0,0-.015-.308.685.685,0,0,0-.061-.237A.335.335,0,0,0-.639-2.1a.62.62,0,0,0-.274-.048.78.78,0,0,0-.35.087,2.066,2.066,0,0,0-.35.223c0,.034.007.073.01.119s0,.089,0,.133V0h-.416V-1.41c0-.109-.006-.213-.015-.311A.637.637,0,0,0-2.1-1.957.333.333,0,0,0-2.237-2.1a.625.625,0,0,0-.274-.047.773.773,0,0,0-.342.084,1.979,1.979,0,0,0-.343.215V0h-.417V-2.475H-3.2V-2.2a1.851,1.851,0,0,1,.389-.253.987.987,0,0,1,.413-.09.815.815,0,0,1,.429.106.661.661,0,0,1,.263.3,2.017,2.017,0,0,1,.461-.307,1.061,1.061,0,0,1,.445-.1A.719.719,0,0,1-.2-2.3a1.1,1.1,0,0,1,.2.691Z" transform="translate(636.284 4681.509)" fill="#b5b5b5"/>
  </g>
</svg>
