<svg id="Gruppe_25327" data-name="Gruppe 25327" xmlns="http://www.w3.org/2000/svg" width="72.198" height="22.135" viewBox="0 0 72.198 22.135">
  <path id="Pfad_1248" data-name="Pfad 1248" d="M0-3.612,3.654-25.057H9.5L5.843-3.612Z" transform="translate(25.434 25.43)"/>
  <path id="Pfad_1249" data-name="Pfad 1249" d="M-2.954-.152a15.088,15.088,0,0,0-5.239-.9c-5.776,0-9.845,2.908-9.879,7.077-.033,3.081,2.9,4.8,5.121,5.827,2.275,1.051,3.04,1.721,3.03,2.66-.015,1.437-1.817,2.094-3.5,2.094a12.248,12.248,0,0,1-5.5-1.126l-.753-.341-.821,4.8a18.485,18.485,0,0,0,6.511,1.144c6.144,0,10.133-2.875,10.179-7.326.022-2.44-1.535-4.3-4.907-5.827-2.043-.992-3.294-1.653-3.281-2.658,0-.891,1.06-1.844,3.347-1.844a10.771,10.771,0,0,1,4.375.822l.524.247Z" transform="translate(55.432 1.052)"/>
  <path id="Pfad_1250" data-name="Pfad 1250" d="M-2.739,0H-7.256a2.907,2.907,0,0,0-3.061,1.778L-19,21.432h6.137s1-2.643,1.232-3.223c.67,0,6.633.009,7.485.009.175.751.711,3.214.711,3.214H1.993ZM-9.946,13.823c.484-1.236,2.329-6,2.329-6-.034.057.48-1.242.775-2.046l.395,1.849s1.119,5.119,1.353,6.193Z" transform="translate(70.205 0.393)"/>
  <path id="Pfad_1251" data-name="Pfad 1251" d="M-2.43,0-8.153,14.624l-.609-2.971c-1.066-3.426-4.384-7.138-8.1-9l5.233,18.755,6.184-.008L3.762,0Z" transform="translate(22.962 0.388)"/>
  <path id="Pfad_1252" data-name="Pfad 1252" d="M-1.6,0h-9.425L-11.1.446C-3.767,2.221,1.085,6.511,3.1,11.665L1.05,1.81C.7.453-.331.047-1.6,0" transform="translate(11.1 0.375)" fill="#b5b5b5"/>
</svg>
